HIERARCHY
ROOT Root
{
  OFFSET 0.0 0.0 0.0
  CHANNELS 6 Xposition Yposition Zposition Zrotation Yrotation Xrotation
  JOINT Hips
  {
    OFFSET 0.0 100.0 0.0
    CHANNELS 6 Xposition Yposition Zposition Zrotation Yrotation Xrotation
    JOINT Spine1
    {
      OFFSET 5.003913 -0.037094 -0.013727
      CHANNELS 3 Zrotation Yrotation Xrotation
      JOINT Spine2
      {
        OFFSET 7.125363 -1e-06 0.0
        CHANNELS 3 Zrotation Yrotation Xrotation
        JOINT Chest
        {
          OFFSET 7.594027 1e-06 0.0
          CHANNELS 3 Zrotation Yrotation Xrotation
          JOINT Neck1
          {
            OFFSET 26.313086 -0.460272 -0.181672
            CHANNELS 3 Zrotation Yrotation Xrotation
            JOINT Neck2
            {
              OFFSET 8.045911 0.0 0.0
              CHANNELS 3 Zrotation Yrotation Xrotation
              JOINT Head
              {
                OFFSET 6.432774 0.0 0.0
                CHANNELS 3 Zrotation Yrotation Xrotation
                JOINT HeadEnd
                {
                  OFFSET 16.169773 0.06451 0.00362
                  CHANNELS 3 Zrotation Yrotation Xrotation
                }
                JOINT Jaw
                {
                  OFFSET 0.108741 3.12938 0.002639
                  CHANNELS 3 Zrotation Yrotation Xrotation
                }
                JOINT LeftEye
                {
                  OFFSET 4.45173 8.166359 3.206392
                  CHANNELS 3 Zrotation Yrotation Xrotation
                }
                JOINT RightEye
                {
                  OFFSET 4.436895 8.135758 -3.222429
                  CHANNELS 3 Zrotation Yrotation Xrotation
                }
              }
            }
          }
          JOINT LeftShoulder
          {
            OFFSET 23.218927 5.195579 1.621656
            CHANNELS 3 Zrotation Yrotation Xrotation
            JOINT LeftArm
            {
              OFFSET 15.902118 2e-06 -2e-06
              CHANNELS 3 Zrotation Yrotation Xrotation
              JOINT LeftForeArm
              {
                OFFSET 28.739307 0.0 -1e-06
                CHANNELS 3 Zrotation Yrotation Xrotation
                JOINT LeftHand
                {
                  OFFSET 27.093981 -4e-06 0.0
                  CHANNELS 3 Zrotation Yrotation Xrotation
                  JOINT LeftHandThumb1
                  {
                    OFFSET 2.276781 3.380274 0.83384
                    CHANNELS 3 Zrotation Yrotation Xrotation
                    JOINT LeftHandThumb2
                    {
                      OFFSET 4.705309 -1e-06 -1e-06
                      CHANNELS 3 Zrotation Yrotation Xrotation
                      JOINT LeftHandThumb3
                      {
                        OFFSET 2.798515 0.0 3e-06
                        CHANNELS 3 Zrotation Yrotation Xrotation
                        JOINT LeftHandThumbEnd
                        {
                          OFFSET 3.180793 4e-06 -4e-06
                          CHANNELS 3 Zrotation Yrotation Xrotation
                        }
                      }
                    }
                  }
                  JOINT LeftHandIndex1
                  {
                    OFFSET 3.247786 2.352677 0.137192
                    CHANNELS 3 Zrotation Yrotation Xrotation
                    JOINT LeftHandIndex2
                    {
                      OFFSET 6.367095 1e-06 0.0
                      CHANNELS 3 Zrotation Yrotation Xrotation
                      JOINT LeftHandIndex3
                      {
                        OFFSET 3.662364 0.0 0.0
                        CHANNELS 3 Zrotation Yrotation Xrotation
                        JOINT LeftHandIndex4
                        {
                          OFFSET 2.329242 4e-06 -4e-06
                          CHANNELS 3 Zrotation Yrotation Xrotation
                          JOINT LeftHandIndexEnd
                          {
                            OFFSET 2.767823 1e-06 0.0
                            CHANNELS 3 Zrotation Yrotation Xrotation
                          }
                        }
                      }
                    }
                  }
                  JOINT LeftHandMiddle1
                  {
                    OFFSET 3.163612 0.945023 -0.406112
                    CHANNELS 3 Zrotation Yrotation Xrotation
                    JOINT LeftHandMiddle2
                    {
                      OFFSET 6.276789 3e-06 0.0
                      CHANNELS 3 Zrotation Yrotation Xrotation
                      JOINT LeftHandMiddle3
                      {
                        OFFSET 4.35652 -1e-06 4e-06
                        CHANNELS 3 Zrotation Yrotation Xrotation
                        JOINT LeftHandMiddle4
                        {
                          OFFSET 2.996877 0.0 8e-06
                          CHANNELS 3 Zrotation Yrotation Xrotation
                          JOINT LeftHandMiddleEnd
                          {
                            OFFSET 2.323256 3e-06 -4e-06
                            CHANNELS 3 Zrotation Yrotation Xrotation
                          }
                        }
                      }
                    }
                  }
                  JOINT LeftHandRing1
                  {
                    OFFSET 2.882606 -0.309162 0.107445
                    CHANNELS 3 Zrotation Yrotation Xrotation
                    JOINT LeftHandRing2
                    {
                      OFFSET 6.033198 0.0 4e-06
                      CHANNELS 3 Zrotation Yrotation Xrotation
                      JOINT LeftHandRing3
                      {
                        OFFSET 4.350578 3e-06 0.0
                        CHANNELS 3 Zrotation Yrotation Xrotation
                        JOINT LeftHandRing4
                        {
                          OFFSET 2.651321 2e-06 -7e-06
                          CHANNELS 3 Zrotation Yrotation Xrotation
                          JOINT LeftHandRingEnd
                          {
                            OFFSET 1.937663 1e-06 -4e-06
                            CHANNELS 3 Zrotation Yrotation Xrotation
                          }
                        }
                      }
                    }
                  }
                  JOINT LeftHandPinky1
                  {
                    OFFSET 2.865315 -1.525436 0.575687
                    CHANNELS 3 Zrotation Yrotation Xrotation
                    JOINT LeftHandPinky2
                    {
                      OFFSET 5.54936 1e-06 -8e-06
                      CHANNELS 3 Zrotation Yrotation Xrotation
                      JOINT LeftHandPinky3
                      {
                        OFFSET 3.070974 0.0 -4e-06
                        CHANNELS 3 Zrotation Yrotation Xrotation
                        JOINT LeftHandPinky4
                        {
                          OFFSET 1.549672 1e-06 0.0
                          CHANNELS 3 Zrotation Yrotation Xrotation
                          JOINT LeftHandPinkyEnd
                          {
                            OFFSET 1.952123 0.0 0.0
                            CHANNELS 3 Zrotation Yrotation Xrotation
                          }
                        }
                      }
                    }
                  }
                }
              }
            }
          }
          JOINT RightShoulder
          {
            OFFSET 23.161716 5.296122 -1.380114
            CHANNELS 3 Zrotation Yrotation Xrotation
            JOINT RightArm
            {
              OFFSET -16.027195 -2e-06 1.1e-05
              CHANNELS 3 Zrotation Yrotation Xrotation
              JOINT RightForeArm
              {
                OFFSET -28.736639 4e-06 2e-06
                CHANNELS 3 Zrotation Yrotation Xrotation
                JOINT RightHand
                {
                  OFFSET -27.133619 6e-06 0.0
                  CHANNELS 3 Zrotation Yrotation Xrotation
                  JOINT RightHandThumb1
                  {
                    OFFSET -2.274328 -3.351035 -0.83067
                    CHANNELS 3 Zrotation Yrotation Xrotation
                    JOINT RightHandThumb2
                    {
                      OFFSET -4.703594 -3e-06 2e-06
                      CHANNELS 3 Zrotation Yrotation Xrotation
                      JOINT RightHandThumb3
                      {
                        OFFSET -2.794935 -4e-06 -3e-06
                        CHANNELS 3 Zrotation Yrotation Xrotation
                        JOINT RightHandThumbEnd
                        {
                          OFFSET -3.183852 4e-06 1e-06
                          CHANNELS 3 Zrotation Yrotation Xrotation
                        }
                      }
                    }
                  }
                  JOINT RightHandIndex1
                  {
                    OFFSET -3.253496 -2.33755 -0.127667
                    CHANNELS 3 Zrotation Yrotation Xrotation
                    JOINT RightHandIndex2
                    {
                      OFFSET -6.344434 0.0 0.0
                      CHANNELS 3 Zrotation Yrotation Xrotation
                      JOINT RightHandIndex3
                      {
                        OFFSET -3.654871 0.0 -8e-06
                        CHANNELS 3 Zrotation Yrotation Xrotation
                        JOINT RightHandIndex4
                        {
                          OFFSET -2.327586 -1e-06 0.0
                          CHANNELS 3 Zrotation Yrotation Xrotation
                          JOINT RightHandIndexEnd
                          {
                            OFFSET -2.770001 3e-06 8e-06
                            CHANNELS 3 Zrotation Yrotation Xrotation
                          }
                        }
                      }
                    }
                  }
                  JOINT RightHandMiddle1
                  {
                    OFFSET -3.168223 -0.944764 0.411762
                    CHANNELS 3 Zrotation Yrotation Xrotation
                    JOINT RightHandMiddle2
                    {
                      OFFSET -6.266691 -1e-06 -4e-06
                      CHANNELS 3 Zrotation Yrotation Xrotation
                      JOINT RightHandMiddle3
                      {
                        OFFSET -4.348901 0.0 0.0
                        CHANNELS 3 Zrotation Yrotation Xrotation
                        JOINT RightHandMiddle4
                        {
                          OFFSET -3.00024 2e-06 -4e-06
                          CHANNELS 3 Zrotation Yrotation Xrotation
                          JOINT RightHandMiddleEnd
                          {
                            OFFSET -2.321477 -4e-06 -4e-06
                            CHANNELS 3 Zrotation Yrotation Xrotation
                          }
                        }
                      }
                    }
                  }
                  JOINT RightHandRing1
                  {
                    OFFSET -2.885654 0.293261 -0.119232
                    CHANNELS 3 Zrotation Yrotation Xrotation
                    JOINT RightHandRing2
                    {
                      OFFSET -6.032835 -1e-06 -4e-06
                      CHANNELS 3 Zrotation Yrotation Xrotation
                      JOINT RightHandRing3
                      {
                        OFFSET -4.33881 0.0 -4e-06
                        CHANNELS 3 Zrotation Yrotation Xrotation
                        JOINT RightHandRing4
                        {
                          OFFSET -2.654903 -4e-06 -4e-06
                          CHANNELS 3 Zrotation Yrotation Xrotation
                          JOINT RightHandRingEnd
                          {
                            OFFSET -1.935122 0.0 4e-06
                            CHANNELS 3 Zrotation Yrotation Xrotation
                          }
                        }
                      }
                    }
                  }
                  JOINT RightHandPinky1
                  {
                    OFFSET -2.866241 1.503904 -0.60527
                    CHANNELS 3 Zrotation Yrotation Xrotation
                    JOINT RightHandPinky2
                    {
                      OFFSET -5.553177 -2e-06 0.0
                      CHANNELS 3 Zrotation Yrotation Xrotation
                      JOINT RightHandPinky3
                      {
                        OFFSET -3.062664 -1e-06 -4e-06
                        CHANNELS 3 Zrotation Yrotation Xrotation
                        JOINT RightHandPinky4
                        {
                          OFFSET -1.546529 2e-06 4e-06
                          CHANNELS 3 Zrotation Yrotation Xrotation
                          JOINT RightHandPinkyEnd
                          {
                            OFFSET -1.952341 0.0 -4e-06
                            CHANNELS 3 Zrotation Yrotation Xrotation
                          }
                        }
                      }
                    }
                  }
                }
              }
            }
          }
        }
      }
    }
    JOINT LeftLeg
    {
      OFFSET -8.443107 2.567604 10.043214
      CHANNELS 3 Zrotation Yrotation Xrotation
      JOINT LeftShin
      {
        OFFSET 43.229198 1e-06 -1e-06
        CHANNELS 3 Zrotation Yrotation Xrotation
        JOINT LeftFoot
        {
          OFFSET 42.298611 1e-06 1e-06
          CHANNELS 3 Zrotation Yrotation Xrotation
          JOINT LeftToeBase
          {
            OFFSET 14.165858 1e-06 0.0
            CHANNELS 3 Zrotation Yrotation Xrotation
            JOINT LeftToeEnd
            {
              OFFSET 6.7141 -0.234461 0.0
              CHANNELS 3 Zrotation Yrotation Xrotation
            }
          }
        }
      }
    }
    JOINT RightLeg
    {
      OFFSET -8.303923 2.592729 -10.047278
      CHANNELS 3 Zrotation Yrotation Xrotation
      JOINT RightShin
      {
        OFFSET -43.369682 0.0 1e-06
        CHANNELS 3 Zrotation Yrotation Xrotation
        JOINT RightFoot
        {
          OFFSET -42.260784 4e-06 2e-06
          CHANNELS 3 Zrotation Yrotation Xrotation
          JOINT RightToeBase
          {
            OFFSET -14.222245 -2e-06 -1e-06
            CHANNELS 3 Zrotation Yrotation Xrotation
            JOINT RightToeEnd
            {
              OFFSET -6.660062 0.232574 -2e-06
              CHANNELS 3 Zrotation Yrotation Xrotation
            }
          }
        }
      }
    }
  }
}
MOTION
Frames: 4
Frame Time: 0.03333333333333333
0.0 0.0 0.0 0.0 -0.0 0.0 -1.737765 96.111603 2.080198 87.354195 -7.158553 89.717224 6.933884 -0.233191 0.097797 -8.890634 -0.518942 0.446372 20.143847 1.3412 -1.152159 26.395994 10.248979 3.335441 -2.612267 -0.482867 -7.036283 -27.977007 0.866814 -9.029302 7e-06 -0.0 -0.0 -0.084979 0.056079 -0.138477 0.003411 0.111378 -0.16586 -0.038459 0.014664 -0.130825 -74.193497 -74.65667 92.375854 9.200285 -69.451698 18.443438 77.068359 0.405436 1.096685 7.829227 6.232947 9.786416 17.636629 -26.322731 52.411201 -19.466663 -14.395598 29.410395 0.0 -8.774823 -0.0 15.050366 -18.470922 6.37419 -0.609771 -1.795652 -3.889328 -4.807091 -11.046813 -2.937852 5e-06 -20.976015 -4e-06 -5.019969 -25.033558 -4.031883 8e-06 -2e-06 1e-06 -10.634535 -5.686971 -3.565587 10.573277 -17.922953 -3.113902 2e-06 -13.821211 -0.0 -0.501778 -31.181511 -4.02702 -11.441118 -59.78289 7.700735 -13.982714 -7.150199 -2.875043 13.772733 -8.401495 -3.218242 0.347731 -34.211555 0.771654 -0.963028 -17.733372 2.621021 -1e-06 -0.0 -1e-06 -17.346418 -20.095221 -4.20178 21.757561 -1.638376 3.866428 1e-06 -6.338824 0.0 -1.697587 -22.591745 -6.19401 -2e-06 -2e-06 -2e-06 126.842583 -85.289688 69.856529 43.699928 -57.84169 -15.984151 65.082253 0.479643 0.440427 20.3661 18.16625 1.337159 22.182117 -20.375904 49.933331 -16.701815 -16.74353 28.476538 -3e-06 -12.690603 -2e-06 14.888039 -17.439892 3.221226 -0.105921 -1.513857 -4.275882 -5.039041 -5.612872 -2.953557 3e-06 -11.020527 -3e-06 -6.111301 -15.895336 -3.840469 0.0 -1e-06 -1e-06 -10.283373 -5.68029 -4.341838 11.028297 -11.302406 -2.372633 -1.384268 -14.238585 -6.320121 -0.625439 -26.924192 -3.827605 -4.630719 -48.896862 -3.176442 -13.708527 -7.363477 -3.720941 18.141148 -14.052745 -3.242674 5e-06 -18.787266 -2e-06 -0.429711 -8.456047 2.555504 -0.0 -1e-06 -1e-06 -15.923536 -20.094484 -5.473587 30.419218 -7.190828 1.735926 1e-06 -8.162928 -0.0 -1.861901 -22.861473 -6.167942 -0.0 -5e-06 -0.0 170.686829 -12.340048 -11.279243 45.01215 -0.595185 0.434461 -76.824913 -8.750251 -21.113434 -20.961334 2.078681 1.988374 -1.0 1e-06 -0.0 -16.069588 -9.045347 -9.973205 31.80315 0.014994 -0.100681 -82.599045 -22.901596 -15.329796 -7.019766 0.300311 1.590379 -1.000001 1e-06 -0.0 
0.0 0.0 0.0 0.0 -0.0 0.0 -1.03054 94.608948 2.757149 87.200699 -7.487538 90.482437 7.489812 -0.533071 0.052823 -8.524835 -0.586072 0.312987 20.573774 1.04042 -1.35408 25.95672 10.089598 3.442275 -2.601378 -0.573461 -6.524004 -29.215458 1.597269 -9.414199 6e-06 0.0 -1e-06 -0.074614 0.013523 -0.066265 0.001082 0.082244 -0.085861 -0.04029 -0.043098 -0.065333 -76.450363 -76.13253 95.033966 18.527941 -67.351593 8.76712 76.58532 0.028372 0.633215 8.032376 5.691625 10.526907 17.636639 -26.322737 52.411201 -19.466661 -14.395596 29.410389 0.0 -8.774822 -1e-06 15.013783 -18.604321 6.282251 -0.609776 -1.795654 -3.88933 -4.807092 -11.046814 -2.93785 1e-06 -20.976019 -1e-06 -5.019974 -25.03356 -4.031881 5e-06 -1e-06 2e-06 -10.634537 -5.686974 -3.565588 10.573275 -17.922951 -3.1139 1e-06 -13.821211 -1e-06 -0.501779 -31.181511 -4.027017 -11.535131 -59.43927 7.481774 -13.982718 -7.150199 -2.875044 13.772731 -8.401493 -3.218241 0.34773 -34.211555 0.771655 -0.963029 -17.73337 2.621019 -1e-06 0.0 -1e-06 -17.346422 -20.095222 -4.201782 21.757561 -1.638374 3.866429 1e-06 -6.338825 1e-06 -1.697593 -22.591749 -6.194006 -1e-06 -3e-06 -2e-06 108.917343 -85.410896 88.382095 44.880611 -58.315037 -16.500158 60.415058 0.548936 0.67729 20.942263 18.793753 1.312797 22.182119 -20.375893 49.933308 -16.701809 -16.74353 28.476528 -2e-06 -12.6906 0.0 15.122771 -17.421679 3.067948 -0.105921 -1.513856 -4.27588 -5.039043 -5.612873 -2.953556 5e-06 -11.020523 -2e-06 -6.111297 -15.895334 -3.840468 -2e-06 0.0 1e-06 -10.28337 -5.680288 -4.341838 11.028296 -11.302405 -2.372633 -1.384268 -14.238579 -6.32012 -0.625441 -26.924183 -3.8276 -4.648133 -48.912739 -3.174538 -13.708526 -7.363477 -3.720938 18.141148 -14.052741 -3.242672 6e-06 -18.787268 -4e-06 -0.429713 -8.456045 2.555502 2e-06 1e-06 -1e-06 -15.923536 -20.094482 -5.473583 30.41921 -7.190825 1.735925 3e-06 -8.162925 -1e-06 -1.861903 -22.861473 -6.167941 1e-06 -3e-06 -1e-06 169.382004 -12.019691 -10.073695 47.858837 -0.633812 0.52003 -82.394714 -9.455172 -21.390839 -21.363123 2.106304 1.979949 -0.999999 2e-06 -0.0 -19.411812 -9.144333 -7.705722 37.777264 -0.08451 -0.003939 -82.571487 -26.036253 -15.625181 -7.487332 0.379237 1.630098 -1.000002 3e-06 0.0 
0.0 0.0 0.0 0.0 -0.0 0.0 -0.148121 92.734917 3.804856 87.271729 -7.327951 91.513611 8.39584 -0.959312 -0.058013 -8.049697 -0.657147 0.035574 21.513872 0.702361 -1.684502 25.154305 9.892649 3.517091 -2.649698 -0.478603 -6.095384 -30.676823 2.355107 -9.344564 6e-06 -0.0 -0.0 -0.090218 0.007354 -0.050573 0.008953 0.069756 -0.050237 -0.037588 -0.044323 -0.06653 -80.801949 -78.227242 99.692345 27.893736 -63.356834 -0.931013 75.697098 -0.209039 0.300616 7.895358 4.875041 10.134599 17.636629 -26.322727 52.411182 -19.466654 -14.395596 29.410378 -0.0 -8.774822 0.0 15.09728 -18.789921 6.114488 -0.609777 -1.795653 -3.889326 -4.807088 -11.046809 -2.937848 3e-06 -20.976011 2e-06 -5.019973 -25.033556 -4.031878 6e-06 0.0 1e-06 -10.634529 -5.686967 -3.565587 10.573272 -17.922947 -3.113897 2e-06 -13.821205 1e-06 -0.50178 -31.181498 -4.027014 -11.684592 -59.349838 7.23701 -13.982708 -7.150194 -2.87504 13.772727 -8.401489 -3.218241 0.34773 -34.21154 0.771659 -0.963031 -17.733366 2.621019 -1e-06 0.0 -1e-06 -17.346416 -20.095213 -4.20178 21.757555 -1.638376 3.866427 -0.0 -6.338821 0.0 -1.697587 -22.591736 -6.194007 -1e-06 -2e-06 -1e-06 86.448242 -85.034775 111.659538 45.722248 -58.733418 -17.691547 55.007832 0.318675 0.811092 21.65564 19.914013 0.250984 22.18211 -20.375896 49.933319 -16.701809 -16.743528 28.476526 -4e-06 -12.690599 0.0 15.298867 -17.440952 2.897139 -0.105919 -1.513856 -4.275881 -5.039039 -5.612871 -2.953557 3e-06 -11.020525 -2e-06 -6.111295 -15.89533 -3.840471 0.0 1e-06 0.0 -10.283369 -5.680288 -4.341839 11.028294 -11.302404 -2.372633 -1.384268 -14.238579 -6.32012 -0.625439 -26.924187 -3.827599 -4.598321 -48.927586 -3.205644 -13.708525 -7.363475 -3.720938 18.141148 -14.052739 -3.242675 7e-06 -18.78727 -2e-06 -0.429714 -8.456041 2.555506 2e-06 1e-06 0.0 -15.923532 -20.094482 -5.473586 30.419205 -7.190828 1.735927 3e-06 -8.162925 -1e-06 -1.861903 -22.861469 -6.167941 0.0 -3e-06 -1e-06 168.616592 -11.40274 -8.932573 51.415417 -0.721271 0.595607 -87.84211 -9.721595 -21.197405 -21.481838 2.154417 2.003076 -1.0 -1e-06 -0.0 -24.605373 -9.233912 -4.988098 47.569622 -0.145095 0.000628 -80.719307 -30.636503 -14.868929 -8.060029 0.440367 1.672571 -1.000002 1e-06 1e-06 
0.0 0.0 0.0 0.0 -0.0 0.0 0.427803 90.681549 4.812609 87.311974 -6.476544 92.527962 9.552273 -1.353671 -0.195534 -7.418207 -0.77327 -0.272773 23.009043 0.471894 -2.070024 24.184132 9.818093 3.532282 -2.715463 -0.420286 -5.332708 -32.167206 3.246915 -9.106264 8e-06 -0.0 0.0 -0.096752 0.011344 -0.05085 0.038287 0.076966 -0.029877 -0.003018 -0.045028 -0.085787 -88.636986 -80.558975 107.561302 35.157158 -57.392483 -8.259189 73.906174 -0.341487 0.088638 7.434613 3.457062 8.232202 17.636625 -26.322737 52.411201 -19.466665 -14.3956 29.410395 -0.0 -8.774824 1e-06 15.324181 -18.870867 6.004674 -0.609774 -1.795654 -3.889326 -4.807088 -11.046813 -2.937851 2e-06 -20.976019 1e-06 -5.019971 -25.03356 -4.031879 7e-06 -2e-06 -1e-06 -10.634537 -5.686973 -3.565586 10.573275 -17.922951 -3.1139 2e-06 -13.82121 2e-06 -0.501775 -31.181511 -4.02702 -11.749584 -59.52475 7.166548 -13.982714 -7.150198 -2.875039 13.772729 -8.401492 -3.218243 0.347729 -34.211555 0.771657 -0.963031 -17.73337 2.621022 -0.0 0.0 -2e-06 -17.346418 -20.095219 -4.201783 21.757561 -1.638377 3.866425 2e-06 -6.338823 1e-06 -1.69759 -22.591743 -6.194004 -0.0 -6e-06 -3e-06 64.189774 -83.642853 134.943787 45.945911 -59.017048 -19.628229 48.619865 0.002602 0.796825 22.469137 21.181458 -1.960543 22.182116 -20.375895 49.933327 -16.70182 -16.74353 28.476536 -4e-06 -12.690604 -1e-06 15.711488 -17.622105 2.744058 -0.105922 -1.513857 -4.275881 -5.039042 -5.612873 -2.953557 5e-06 -11.020527 -2e-06 -6.111297 -15.895334 -3.840473 -0.0 0.0 -1e-06 -10.283374 -5.680291 -4.341838 11.028295 -11.302406 -2.372632 -1.384267 -14.23858 -6.320121 -0.625433 -26.924191 -3.827605 -4.476665 -49.18763 -3.152782 -13.708527 -7.363477 -3.720938 18.141151 -14.052739 -3.242675 1.2e-05 -18.78727 -4e-06 -0.429712 -8.45604 2.555504 -0.0 -2e-06 0.0 -15.923539 -20.094486 -5.473584 30.41921 -7.190827 1.735925 5e-06 -8.162929 -1e-06 -1.861902 -22.861469 -6.167941 0.0 -3e-06 -1e-06 168.352142 -11.259277 -8.035448 55.816219 -0.870033 0.695041 -92.096848 -8.942972 -21.053057 -21.739973 2.183822 2.011774 -0.999999 -0.0 0.0 -31.042875 -8.500648 -2.229309 60.030029 -0.229917 -0.010658 -75.896698 -36.012646 -12.453397 -8.878419 0.496523 1.723893 -1.000001 -0.0 1e-06 
